#!OML:ASF X:\für Bonn\!DataBase\2005_08_10_Bjorn_Final\c3d\bjorn.ASF
:FULLY-SPECIFIED
:DEGREES
218
root -1.43857 17.8271 9.51684 -174.958 43.6603 184.318
lowerback -1.74806 6.49882 8.06035
upperback 4.19284 8.41169 2.69861
thorax 6.11715 4.5263 -0.968506
lowerneck -8.77649 5.13936 8.0019
upperneck -0.532415 7.11301 -16.9099
head 2.24286 3.40844 -6.10187
rclavicle 8.17005e-014 -2.14687e-014
rhumerus 55.9605 28.8195 -69.7677
rradius 95.2097
rwrist 31.9012
rhand -62.8981 28.6879
rfingers 7.12502
rthumb -34.9062 2.11001
lclavicle 8.17005e-014 -2.14687e-014
lhumerus 38.3762 -24.6268 75.587
lradius 104.45
lwrist 52.8006
lhand -60.4293 3.56561
lfingers 7.12502
lthumb -32.5605 30.6575
rfemur 541.945 -188.214 -531.635
rtibia 37.7233
rfoot -16.1008 21.2925
rtoes -28.6858
lfemur 327.803 -1.68 353.522
ltibia 55.9837
lfoot -16.7237 5.51147
ltoes -33.094
219
root -1.3975 18.0363 9.39368 -175.026 44.0661 184.208
lowerback -2.22052 6.67799 7.91655
upperback 3.87587 8.60519 2.52857
thorax 6.07045 4.59829 -1.01457
lowerneck -8.3861 5.09225 8.12143
upperneck 0.122834 7.05903 -16.5156
head 2.34719 3.35993 -6.00524
rclavicle -1.09332e-015 -1.43125e-014
rhumerus 56.6875 28.581 -70.0342
rradius 93.8762
rwrist 31.8855
rhand -62.9947 29.0018
rfingers 7.12502
rthumb -34.9979 2.44523
lclavicle -1.09332e-015 -1.43125e-014
lhumerus 38.6791 -24.3225 76.0346
lradius 103.24
lwrist 53.1004
lhand -59.9567 3.2086
lfingers 7.12502
lthumb -32.1107 30.3923
rfemur 543.13 -187.205 -532.381
rtibia 35.0361
rfoot -11.1702 21.6755
rtoes -26.8396
lfemur 329.575 -1.30179 353.183
ltibia 53.6245
lfoot -15.488 5.00814
ltoes -32.8538
220
root -1.35495 18.2555 9.27468 -175.107 44.4553 184.06
lowerback -2.71461 6.84113 7.69556
upperback 3.57798 8.7819 2.35976
thorax 6.04241 4.66086 -1.01442
lowerneck -8.03608 5.05856 8.3308
upperneck 0.80135 7.02831 -16.231
head 2.4768 3.3239 -5.95612
rclavicle -5.38706e-014 -9.54166e-015
rhumerus 57.5733 28.3029 -70.3042
rradius 92.3615
rwrist 31.8871
rhand -63.0912 29.2152
rfingers 7.12502
rthumb -35.0895 2.68003
lclavicle -5.38706e-014 -9.54166e-015
lhumerus 38.9847 -23.899 76.6299
lradius 101.95
lwrist 53.7589
lhand -59.3776 2.40736
lfingers 7.12502
lthumb -31.5591 29.7007
rfemur 544.054 -186.386 -533.041
rtibia 32.7361
rfoot -6.61357 21.2261
rtoes -26.8016
lfemur 331.284 -0.937151 352.864
ltibia 51.2349
lfoot -14.0515 4.37254
ltoes -32.433
221
root -1.30998 18.4867 9.15997 -175.302 44.8648 183.91
lowerback -3.0872 7.00123 7.50424
upperback 3.33664 8.96892 2.1538
thorax 6.01698 4.73412 -1.07583
lowerneck -7.68889 5.01552 8.62139
upperneck 1.41812 6.97771 -15.9975
head 2.5918 3.28362 -5.93907
rclavicle -2.59414e-014 -1.90833e-014
rhumerus 58.476 27.9284 -70.6769
rradius 90.7368
rwrist 31.9528
rhand -63.1473 29.6935
rfingers 7.12502
rthumb -35.1426 3.17091
lclavicle -2.59414e-014 -1.90833e-014
lhumerus 39.3377 -23.4205 77.2405
lradius 100.627
lwrist 54.5315
lhand -58.8138 1.70794
lfingers 7.12502
lthumb -31.0219 29.1052
rfemur 544.809 -185.626 -533.635
rtibia 30.8796
rfoot -2.34267 20.3786
rtoes -28.8723
lfemur 333.087 -0.648529 352.587
ltibia 48.8325
lfoot -12.4021 3.74938
ltoes -31.8845
222
root -1.26227 18.7232 9.04956 -175.598 45.2729 183.746
lowerback -3.36845 7.15528 7.30562
upperback 3.12501 9.1599 1.92875
thorax 5.97362 4.81143 -1.1608
lowerneck -7.4903 4.98167 8.89681
upperneck 2.26156 6.95309 -15.6875
head 2.79759 3.2474 -5.88968
rclavicle -1.0794e-013 -4.92986e-014
rhumerus 59.4311 27.4921 -71.0806
rradius 88.9449
rwrist 32.1157
rhand -63.2965 30.6428
rfingers 7.12502
rthumb -35.2841 4.15359
lclavicle -1.0794e-013 -4.92986e-014
lhumerus 39.6642 -22.9359 77.8568
lradius 99.3038
lwrist 55.3162
lhand -58.3197 1.31747
lfingers 7.12502
lthumb -30.5508 28.8036
rfemur 545.417 -184.922 -534.172
rtibia 29.4424
rfoot 1.75818 19.3977
rtoes -31.4889
lfemur 334.953 -0.423186 352.335
ltibia 46.4251
lfoot -10.5001 3.20487
ltoes -31.4145
223
root -1.21367 18.9643 8.94419 -175.611 45.62 183.791
lowerback -3.78029 7.32973 7.2426
upperback 2.88848 9.36186 1.70351
thorax 6.00216 4.90011 -1.29752
lowerneck -7.4159 4.93675 9.02552
upperneck 3.24292 6.9072 -15.0938
head 3.04587 3.19999 -5.72542
rclavicle 6.6891e-014 7.95139e-015
rhumerus 60.5055 26.9095 -71.5107
rradius 86.9751
rwrist 32.4948
rhand -63.5466 31.4096
rfingers 7.12502
rthumb -35.5212 4.9769
lclavicle 6.6891e-014 7.95139e-015
lhumerus 40.0858 -22.4688 78.4685
lradius 97.8637
lwrist 56.2214
lhand -57.6988 0.933938
lfingers 7.12502
lthumb -29.9585 28.5287
rfemur 545.673 -184.26 -534.473
rtibia 28.4216
rfoot 5.48934 18.4734
rtoes -33.7276
lfemur 336.591 -0.194014 352.29
ltibia 44.0317
lfoot -8.12402 2.7102
ltoes -30.9924
224
root -1.1655 19.2077 8.84402 -175.341 45.9315 184.129
lowerback -4.26744 7.50041 7.40302
upperback 2.65336 9.54108 1.48567
thorax 6.11097 4.98795 -1.53236
lowerneck -7.2307 4.89941 9.07766
upperneck 3.99242 6.84382 -14.3502
head 3.19847 3.16285 -5.50629
rclavicle -4.36332e-014 -1.27222e-014
rhumerus 61.6289 26.2702 -72.0324
rradius 84.9073
rwrist 33.0193
rhand -63.9049 31.6806
rfingers 7.12502
rthumb -35.8609 5.33
lclavicle -4.36332e-014 -1.27222e-014
lhumerus 40.6641 -21.9599 78.9671
lradius 96.2886
lwrist 57.22
lhand -57.0284 0.866349
lfingers 7.12502
lthumb -29.3186 28.5749
rfemur 545.639 -183.655 -534.473
rtibia 27.8009
rfoot 8.99427 17.451
rtoes -34.3863
lfemur 338.063 0.0511559 352.495
ltibia 41.6701
lfoot -5.28501 2.31401
ltoes -30.8325
225
root -1.11572 19.4522 8.74719 -175.067 46.2711 184.321
lowerback -4.8613 7.68427 7.42418
upperback 2.39061 9.73876 1.21706
thorax 6.23925 5.07915 -1.72936
lowerneck -6.91011 4.85318 9.06337
upperneck 4.59087 6.75468 -13.4822
head 3.27577 3.12862 -5.24263
rclavicle -6.95746e-015 -1.23246e-014
rhumerus 62.6257 25.611 -72.7078
rradius 82.8635
rwrist 33.6595
rhand -64.2276 31.5338
rfingers 7.12502
rthumb -36.1666 5.25835
lclavicle -6.95746e-015 -1.23246e-014
lhumerus 41.2452 -21.4613 79.4544
lradius 94.6313
lwrist 58.1201
lhand -56.3198 0.993936
lfingers 7.12502
lthumb -28.6418 28.8187
rfemur 545.281 -182.986 -534.574
rtibia 27.562
rfoot 12.1124 16.5473
rtoes -34.7808
lfemur 339.352 0.320793 352.589
ltibia 39.3498
lfoot -2.22155 2.03567
ltoes -31.185
226
root -1.06409 19.6905 8.65345 -174.888 46.6782 184.563
lowerback -5.27587 7.865 7.45834
upperback 2.12054 9.95032 0.958818
thorax 6.26112 5.17735 -1.945
lowerneck -6.45623 4.80195 9.09753
upperneck 5.21311 6.66499 -12.5939
head 3.34098 3.10487 -4.98412
rclavicle 3.72473e-014 2.38542e-015
rhumerus 63.2853 25.0165 -73.6993
rradius 80.9447
rwrist 34.4819
rhand -64.3762 31.3622
rfingers 7.12502
rthumb -36.3073 5.12178
lclavicle 3.72473e-014 2.38542e-015
lhumerus 41.6823 -20.9391 79.9783
lradius 93.0122
lwrist 59.0065
lhand -55.6002 1.03228
lfingers 7.12502
lthumb -27.9541 28.9711
rfemur 544.887 -182.214 -534.657
rtibia 27.6234
rfoot 14.7538 16.0416
rtoes -35.0322
lfemur 340.753 0.607542 352.734
ltibia 37.0848
lfoot 0.790424 1.86542
ltoes -31.7902
227
root -1.01213 19.924 8.56367 -174.826 47.1198 184.622
lowerback -5.71663 8.03783 7.32685
upperback 1.88203 10.1629 0.672008
thorax 6.30843 5.27189 -2.09511
lowerneck -6.07263 4.7601 9.11515
upperneck 5.87038 6.58938 -11.6857
head 3.43119 3.09165 -4.7147
rclavicle -1.03331e-013 1.15295e-014
rhumerus 63.8429 24.4307 -74.785
rradius 79.0798
rwrist 35.3488
rhand -64.4357 31.2679
rfingers 7.12502
rthumb -36.3636 5.04156
lclavicle -1.03331e-013 1.15295e-014
lhumerus 42.2246 -20.3911 80.5067
lradius 91.2671
lwrist 59.7855
lhand -54.7871 0.314309
lfingers 7.12502
lthumb -27.1765 28.3772
rfemur 544.392 -181.77 -534.725
rtibia 27.924
rfoot 16.6397 15.3441
rtoes -35.1827
lfemur 342.062 0.826755 352.756
ltibia 34.9201
lfoot 3.65247 1.87342
ltoes -32.2445
228
root -0.961333 20.1527 8.47856 -174.752 47.5611 184.67
lowerback -6.14181 8.18995 7.14885
upperback 1.61966 10.3564 0.395951
thorax 6.30944 5.35489 -2.21608
lowerneck -5.59191 4.70813 9.19138
upperneck 6.47584 6.51337 -10.8835
head 3.4975 3.08659 -4.49057
rclavicle 2.21396e-014 4.77083e-015
rhumerus 64.2848 23.9472 -75.9414
rradius 77.1902
rwrist 36.2262
rhand -64.5075 31.2987
rfingers 7.12502
rthumb -36.4315 5.08934
lclavicle 2.21396e-014 4.77083e-015
lhumerus 42.8346 -19.8295 81.041
lradius 89.354
lwrist 60.3893
lhand -53.8365 -1.05481
lfingers 7.12502
lthumb -26.2668 27.147
rfemur 543.83 -181.467 -534.707
rtibia 28.3653
rfoot 17.8379 14.5789
rtoes -34.8594
lfemur 343.192 0.846799 352.829
ltibia 32.9094
lfoot 6.53104 2.14146
ltoes -32.2018
229
root -0.912587 20.3729 8.39879 -174.661 47.9649 184.72
lowerback -6.56213 8.33487 6.96391
upperback 1.35616 10.5451 0.113646
thorax 6.30618 5.43636 -2.33984
lowerneck -5.02466 4.62769 9.36347
upperneck 6.9641 6.40443 -10.1954
head 3.51972 3.07212 -4.32216
rclavicle -2.94015e-014 8.54774e-015
rhumerus 64.6717 23.4558 -77.0476
rradius 75.3073
rwrist 37.0165
rhand -64.4252 30.7479
rfingers 7.12502
rthumb -36.3536 4.51904
lclavicle -2.94015e-014 8.54774e-015
lhumerus 43.5771 -19.2687 81.5836
lradius 87.2388
lwrist 60.8656
lhand -52.8541 -2.66568
lfingers 7.12502
lthumb -25.3259 25.6728
rfemur 543.231 -181.09 -534.656
rtibia 28.9027
rfoot 18.4618 13.8806
rtoes -34.0301
lfemur 344.214 0.902424 352.922
ltibia 31.104
lfoot 9.42242 2.30749
ltoes -32.7125
230
root -0.865935 20.5843 8.32423 -174.579 48.3297 184.751
lowerback -6.95266 8.45309 6.71545
upperback 1.09247 10.7085 -0.141832
thorax 6.26607 5.50343 -2.41095
lowerneck -4.42465 4.52899 9.60643
upperneck 7.39636 6.29236 -9.70432
head 3.52926 3.05711 -4.22744
rclavicle 4.7963e-014 -1.63997e-015
rhumerus 65.1449 23.0014 -78.0365
rradius 73.2432
rwrist 37.4806
rhand -64.1618 29.856
rfingers 7.12502
rthumb -36.1042 3.56517
lclavicle 4.7963e-014 -1.63997e-015
lhumerus 44.422 -18.6879 82.1946
lradius 84.9401
lwrist 61.0315
lhand -51.9822 -3.92171
lfingers 7.12502
lthumb -24.4905 24.5325
rfemur 542.631 -180.663 -534.593
rtibia 29.4789
rfoot 18.6516 13.1454
rtoes -33.3127
lfemur 345.085 1.02219 353.024
ltibia 29.5233
lfoot 12.203 2.44992
ltoes -33.1655
231
root -0.820196 20.7892 8.2543 -174.508 48.6438 184.757
lowerback -7.36814 8.53122 6.4043
upperback 0.865596 10.8233 -0.364162
thorax 6.25534 5.54615 -2.41577
lowerneck -3.93306 4.43329 9.83608
upperneck 7.91207 6.19978 -9.30281
head 3.5869 3.04963 -4.15429
rclavicle 3.08737e-015 1.07344e-014
rhumerus 65.9514 22.5654 -78.7737
rradius 70.9027
rwrist 37.4259
rhand -63.7108 28.7942
rfingers 7.12502
rthumb -35.6769 2.39896
lclavicle 3.08737e-015 1.07344e-014
lhumerus 45.316 -18.0424 82.8743
lradius 82.5702
lwrist 61.0318
lhand -51.2978 -4.65209
lfingers 7.12502
lthumb -23.8342 23.8893
rfemur 542.074 -180.289 -534.492
rtibia 30.0471
rfoot 18.3751 12.2566
rtoes -33.1134
lfemur 345.783 1.15197 353.129
ltibia 28.2203
lfoot 14.6169 2.85087
ltoes -33.2453
232
root -0.775314 20.988 8.18737 -174.404 48.9231 184.761
lowerback -7.77437 8.60455 6.08935
upperback 0.615027 10.9385 -0.612081
thorax 6.21814 5.58977 -2.44758
lowerneck -3.42798 4.31424 10.164
upperneck 8.42777 6.08611 -8.99603
head 3.6466 3.03555 -4.12793
rclavicle -6.10129e-014 -9.34288e-015
rhumerus 66.9057 22.0127 -79.3562
rradius 68.3344
rwrist 37.1095
rhand -63.2407 27.7203
rfingers 7.12502
rthumb -35.2313 1.21853
lclavicle -6.10129e-014 -9.34288e-015
lhumerus 46.213 -17.4499 83.5614
lradius 80.1686
lwrist 60.9433
lhand -50.8825 -4.68733
lfingers 7.12502
lthumb -23.4359 23.9055
rfemur 541.552 -179.981 -534.344
rtibia 30.548
rfoot 17.8546 11.1859
rtoes -32.6631
lfemur 346.295 1.1243 353.242
ltibia 27.2155
lfoot 16.4437 3.65482
ltoes -32.6167
